<?xml version="1.0" standalone="no"?><svg xmlns="http://www.w3.org/2000/svg" viewBox="0 0 1440 320"><path fill="#FFBF00" fill-opacity="1" d="M0,64L8.6,106.7C17.1,149,34,235,51,229.3C68.6,224,86,128,103,85.3C120,43,137,53,154,58.7C171.4,64,189,64,206,64C222.9,64,240,64,257,80C274.3,96,291,128,309,128C325.7,128,343,96,360,122.7C377.1,149,394,235,411,266.7C428.6,299,446,277,463,229.3C480,181,497,107,514,69.3C531.4,32,549,32,566,58.7C582.9,85,600,139,617,186.7C634.3,235,651,277,669,250.7C685.7,224,703,128,720,106.7C737.1,85,754,139,771,181.3C788.6,224,806,256,823,224C840,192,857,96,874,64C891.4,32,909,64,926,112C942.9,160,960,224,977,224C994.3,224,1011,160,1029,128C1045.7,96,1063,96,1080,133.3C1097.1,171,1114,245,1131,261.3C1148.6,277,1166,235,1183,202.7C1200,171,1217,149,1234,138.7C1251.4,128,1269,128,1286,117.3C1302.9,107,1320,85,1337,101.3C1354.3,117,1371,171,1389,186.7C1405.7,203,1423,181,1431,170.7L1440,160L1440,0L1431.4,0C1422.9,0,1406,0,1389,0C1371.4,0,1354,0,1337,0C1320,0,1303,0,1286,0C1268.6,0,1251,0,1234,0C1217.1,0,1200,0,1183,0C1165.7,0,1149,0,1131,0C1114.3,0,1097,0,1080,0C1062.9,0,1046,0,1029,0C1011.4,0,994,0,977,0C960,0,943,0,926,0C908.6,0,891,0,874,0C857.1,0,840,0,823,0C805.7,0,789,0,771,0C754.3,0,737,0,720,0C702.9,0,686,0,669,0C651.4,0,634,0,617,0C600,0,583,0,566,0C548.6,0,531,0,514,0C497.1,0,480,0,463,0C445.7,0,429,0,411,0C394.3,0,377,0,360,0C342.9,0,326,0,309,0C291.4,0,274,0,257,0C240,0,223,0,206,0C188.6,0,171,0,154,0C137.1,0,120,0,103,0C85.7,0,69,0,51,0C34.3,0,17,0,9,0L0,0Z"></path></svg>