<?xml version="1.0" standalone="no"?><svg xmlns="http://www.w3.org/2000/svg" viewBox="0 0 1440 320"><path fill="#FFBF00" fill-opacity="1" d="M0,320L8.6,282.7C17.1,245,34,171,51,133.3C68.6,96,86,96,103,85.3C120,75,137,53,154,53.3C171.4,53,189,75,206,80C222.9,85,240,75,257,69.3C274.3,64,291,64,309,96C325.7,128,343,192,360,181.3C377.1,171,394,85,411,80C428.6,75,446,149,463,154.7C480,160,497,96,514,96C531.4,96,549,160,566,165.3C582.9,171,600,117,617,122.7C634.3,128,651,192,669,208C685.7,224,703,192,720,170.7C737.1,149,754,139,771,160C788.6,181,806,235,823,240C840,245,857,203,874,181.3C891.4,160,909,160,926,133.3C942.9,107,960,53,977,58.7C994.3,64,1011,128,1029,176C1045.7,224,1063,256,1080,224C1097.1,192,1114,96,1131,53.3C1148.6,11,1166,21,1183,69.3C1200,117,1217,203,1234,245.3C1251.4,288,1269,288,1286,272C1302.9,256,1320,224,1337,213.3C1354.3,203,1371,213,1389,218.7C1405.7,224,1423,224,1431,224L1440,224L1440,0L1431.4,0C1422.9,0,1406,0,1389,0C1371.4,0,1354,0,1337,0C1320,0,1303,0,1286,0C1268.6,0,1251,0,1234,0C1217.1,0,1200,0,1183,0C1165.7,0,1149,0,1131,0C1114.3,0,1097,0,1080,0C1062.9,0,1046,0,1029,0C1011.4,0,994,0,977,0C960,0,943,0,926,0C908.6,0,891,0,874,0C857.1,0,840,0,823,0C805.7,0,789,0,771,0C754.3,0,737,0,720,0C702.9,0,686,0,669,0C651.4,0,634,0,617,0C600,0,583,0,566,0C548.6,0,531,0,514,0C497.1,0,480,0,463,0C445.7,0,429,0,411,0C394.3,0,377,0,360,0C342.9,0,326,0,309,0C291.4,0,274,0,257,0C240,0,223,0,206,0C188.6,0,171,0,154,0C137.1,0,120,0,103,0C85.7,0,69,0,51,0C34.3,0,17,0,9,0L0,0Z"></path></svg>